<svg width="50" height="50" viewBox="0 0 50 50" fill="none" xmlns="http://www.w3.org/2000/svg">
<rect width="50" height="50" fill="#1E1E1E"/>
<g clip-path="url(#clip0_0_1)">
<g filter="url(#filter0_d_0_1)">
<line x1="3.5" y1="8.5" x2="50.5" y2="58.5" stroke="#00C2FF" stroke-width="3" stroke-linecap="round"/>
</g>
<g filter="url(#filter1_d_0_1)">
<line x1="3.5" y1="36.5" x2="50.5" y2="86.5" stroke="#00C2FF" stroke-width="3" stroke-linecap="round"/>
</g>
<g filter="url(#filter2_d_0_1)">
<path d="M2 15L11.6611 24.6103" stroke="#00C2FF" stroke-width="3" stroke-linecap="round"/>
</g>
<g filter="url(#filter3_d_0_1)">
<line x1="43.0603" y1="21.8611" x2="49.1317" y2="29.2103" stroke="#00C2FF" stroke-width="3" stroke-linecap="round"/>
</g>
<g filter="url(#filter4_d_0_1)">
<path d="M23.9869 18C23.7994 17.4261 23.5522 16.9119 23.2454 16.4574C22.9442 15.9972 22.5835 15.6051 22.163 15.2812C21.7482 14.9574 21.2766 14.7102 20.7482 14.5398C20.2198 14.3693 19.6403 14.2841 19.0096 14.2841C17.9755 14.2841 17.0352 14.5511 16.1886 15.0852C15.342 15.6193 14.6687 16.4062 14.1687 17.446C13.6687 18.4858 13.4187 19.7614 13.4187 21.2727C13.4187 22.7841 13.6715 24.0597 14.1772 25.0994C14.6829 26.1392 15.3675 26.9261 16.2312 27.4602C17.0948 27.9943 18.0664 28.2614 19.146 28.2614C20.146 28.2614 21.0266 28.0483 21.788 27.6222C22.555 27.1903 23.1516 26.5824 23.5778 25.7983C24.0096 25.0085 24.2255 24.0795 24.2255 23.0114L24.8732 23.1477H19.6232V21.2727H26.271V23.1477C26.271 24.5852 25.9641 25.8352 25.3505 26.8977C24.7425 27.9602 23.9016 28.7841 22.8278 29.3693C21.7596 29.9489 20.5323 30.2386 19.146 30.2386C17.6005 30.2386 16.2425 29.875 15.0721 29.1477C13.9073 28.4205 12.9982 27.3864 12.3448 26.0455C11.6971 24.7045 11.3732 23.1136 11.3732 21.2727C11.3732 19.892 11.5579 18.6506 11.9272 17.5483C12.3022 16.4403 12.8306 15.4972 13.5124 14.7188C14.1942 13.9403 15.0011 13.3438 15.9329 12.929C16.8647 12.5142 17.8903 12.3068 19.0096 12.3068C19.93 12.3068 20.788 12.446 21.5835 12.7244C22.3846 12.9972 23.0977 13.3864 23.7227 13.892C24.3533 14.392 24.8789 14.9915 25.2994 15.6903C25.7198 16.3835 26.0096 17.1534 26.1687 18H23.9869ZM44.6183 21.2727C44.6183 23.1136 44.2859 24.7045 43.6211 26.0455C42.9563 27.3864 42.0444 28.4205 40.8853 29.1477C39.7262 29.875 38.4023 30.2386 36.9137 30.2386C35.4251 30.2386 34.1012 29.875 32.9421 29.1477C31.783 28.4205 30.8711 27.3864 30.2063 26.0455C29.5415 24.7045 29.2092 23.1136 29.2092 21.2727C29.2092 19.4318 29.5415 17.8409 30.2063 16.5C30.8711 15.1591 31.783 14.125 32.9421 13.3977C34.1012 12.6705 35.4251 12.3068 36.9137 12.3068C38.4023 12.3068 39.7262 12.6705 40.8853 13.3977C42.0444 14.125 42.9563 15.1591 43.6211 16.5C44.2859 17.8409 44.6183 19.4318 44.6183 21.2727ZM42.5728 21.2727C42.5728 19.7614 42.32 18.4858 41.8143 17.446C41.3143 16.4062 40.6353 15.6193 39.7773 15.0852C38.9251 14.5511 37.9705 14.2841 36.9137 14.2841C35.8569 14.2841 34.8995 14.5511 34.0415 15.0852C33.1893 15.6193 32.5103 16.4062 32.0046 17.446C31.5046 18.4858 31.2546 19.7614 31.2546 21.2727C31.2546 22.7841 31.5046 24.0597 32.0046 25.0994C32.5103 26.1392 33.1893 26.9261 34.0415 27.4602C34.8995 27.9943 35.8569 28.2614 36.9137 28.2614C37.9705 28.2614 38.9251 27.9943 39.7773 27.4602C40.6353 26.9261 41.3143 26.1392 41.8143 25.0994C42.32 24.0597 42.5728 22.7841 42.5728 21.2727Z" fill="white"/>
</g>
</g>
<defs>
<filter id="filter0_d_0_1" x="-9" y="7" width="61" height="14" filterUnits="userSpaceOnUse" color-interpolation-filters="sRGB">
<feFlood flood-opacity="0" result="BackgroundImageFix"/>
<feColorMatrix in="SourceAlpha" type="matrix" values="0 0 0 0 0 0 0 0 0 0 0 0 0 0 0 0 0 0 127 0" result="hardAlpha"/>
<feOffset dx="-7" dy="7"/>
<feGaussianBlur stdDeviation="2"/>
<feComposite in2="hardAlpha" operator="out"/>
<feColorMatrix type="matrix" values="0 0 0 0 0 0 0 0 0 0 0 0 0 0 0 0 0 0 0.75 0"/>
<feBlend mode="normal" in2="BackgroundImageFix" result="effect1_dropShadow_0_1"/>
<feBlend mode="normal" in="SourceGraphic" in2="effect1_dropShadow_0_1" result="shape"/>
</filter>
<filter id="filter1_d_0_1" x="-9" y="35" width="61" height="14" filterUnits="userSpaceOnUse" color-interpolation-filters="sRGB">
<feFlood flood-opacity="0" result="BackgroundImageFix"/>
<feColorMatrix in="SourceAlpha" type="matrix" values="0 0 0 0 0 0 0 0 0 0 0 0 0 0 0 0 0 0 127 0" result="hardAlpha"/>
<feOffset dx="-7" dy="7"/>
<feGaussianBlur stdDeviation="2"/>
<feComposite in2="hardAlpha" operator="out"/>
<feColorMatrix type="matrix" values="0 0 0 0 0 0 0 0 0 0 0 0 0 0 0 0 0 0 0.75 0"/>
<feBlend mode="normal" in2="BackgroundImageFix" result="effect1_dropShadow_0_1"/>
<feBlend mode="normal" in="SourceGraphic" in2="effect1_dropShadow_0_1" result="shape"/>
</filter>
<filter id="filter2_d_0_1" x="-10.5" y="13.5" width="23.6611" height="23.6103" filterUnits="userSpaceOnUse" color-interpolation-filters="sRGB">
<feFlood flood-opacity="0" result="BackgroundImageFix"/>
<feColorMatrix in="SourceAlpha" type="matrix" values="0 0 0 0 0 0 0 0 0 0 0 0 0 0 0 0 0 0 127 0" result="hardAlpha"/>
<feOffset dx="-7" dy="7"/>
<feGaussianBlur stdDeviation="2"/>
<feComposite in2="hardAlpha" operator="out"/>
<feColorMatrix type="matrix" values="0 0 0 0 0 0 0 0 0 0 0 0 0 0 0 0 0 0 0.75 0"/>
<feBlend mode="normal" in2="BackgroundImageFix" result="effect1_dropShadow_0_1"/>
<feBlend mode="normal" in="SourceGraphic" in2="effect1_dropShadow_0_1" result="shape"/>
</filter>
<filter id="filter3_d_0_1" x="30.5599" y="20.3608" width="21.3427" height="15.6322" filterUnits="userSpaceOnUse" color-interpolation-filters="sRGB">
<feFlood flood-opacity="0" result="BackgroundImageFix"/>
<feColorMatrix in="SourceAlpha" type="matrix" values="0 0 0 0 0 0 0 0 0 0 0 0 0 0 0 0 0 0 127 0" result="hardAlpha"/>
<feOffset dx="-7" dy="7"/>
<feGaussianBlur stdDeviation="2"/>
<feComposite in2="hardAlpha" operator="out"/>
<feColorMatrix type="matrix" values="0 0 0 0 0 0 0 0 0 0 0 0 0 0 0 0 0 0 0.75 0"/>
<feBlend mode="normal" in2="BackgroundImageFix" result="effect1_dropShadow_0_1"/>
<feBlend mode="normal" in="SourceGraphic" in2="effect1_dropShadow_0_1" result="shape"/>
</filter>
<filter id="filter4_d_0_1" x="0.373222" y="12.3068" width="44.245" height="28.9318" filterUnits="userSpaceOnUse" color-interpolation-filters="sRGB">
<feFlood flood-opacity="0" result="BackgroundImageFix"/>
<feColorMatrix in="SourceAlpha" type="matrix" values="0 0 0 0 0 0 0 0 0 0 0 0 0 0 0 0 0 0 127 0" result="hardAlpha"/>
<feOffset dx="-7" dy="7"/>
<feGaussianBlur stdDeviation="2"/>
<feComposite in2="hardAlpha" operator="out"/>
<feColorMatrix type="matrix" values="0 0 0 0 0 0 0 0 0 0 0 0 0 0 0 0 0 0 0.75 0"/>
<feBlend mode="normal" in2="BackgroundImageFix" result="effect1_dropShadow_0_1"/>
<feBlend mode="normal" in="SourceGraphic" in2="effect1_dropShadow_0_1" result="shape"/>
</filter>
<clipPath id="clip0_0_1">
<rect width="50" height="50" fill="white"/>
</clipPath>
</defs>
</svg>
